{
  "accessors": [
    {
      "bufferView": 2,
      "componentType": 5126,
      "count": 16044,
      "max": [
        18.46747589111328,
        20.212907791137695,
        32.653892517089844
      ],
      "min": [
        -28.905637741088867,
        -14.823165893554688,
        -9.407649040222168
      ],
      "type": "VEC3"
    },
    {
      "bufferView": 2,
      "byteOffset": 192528,
      "componentType": 5126,
      "count": 16044,
      "max": [
        1.0,
        1.0,
        1.0
      ],
      "min": [
        -1.0,
        -1.0,
        -1.0
      ],
      "type": "VEC3"
    },
    {
      "bufferView": 1,
      "componentType": 5126,
      "count": 16044,
      "max": [
        0.9984049797058105,
        0.9992190003395081
      ],
      "min": [
        0.0007810000097379088,
        0.0007849999819882214
      ],
      "type": "VEC2"
    },
    {
      "bufferView": 0,
      "componentType": 5125,
      "count": 30000,
      "type": "SCALAR"
    }
  ],
  "asset": {
    "extras": {
      "author": "Laser Design (https://sketchfab.com/Laserdesign)",
      "license": "CC-BY-4.0 (http://creativecommons.org/licenses/by/4.0/)",
      "source": "https://sketchfab.com/3d-models/chicken-nugget-511db88f24e04eb1be8b0c0c080e1e5e",
      "title": "Chicken Nugget"
    },
    "generator": "Sketchfab-12.66.0",
    "version": "2.0"
  },
  "bufferViews": [
    {
      "buffer": 0,
      "byteLength": 120000,
      "name": "floatBufferViews",
      "target": 34963
    },
    {
      "buffer": 0,
      "byteLength": 128352,
      "byteOffset": 120000,
      "byteStride": 8,
      "name": "floatBufferViews",
      "target": 34962
    },
    {
      "buffer": 0,
      "byteLength": 385056,
      "byteOffset": 248352,
      "byteStride": 12,
      "name": "floatBufferViews",
      "target": 34962
    }
  ],
  "buffers": [
    {
      "byteLength": 633408,
      "uri": "scene.bin"
    }
  ],
  "extensionsUsed": [
    "KHR_materials_unlit"
  ],
  "images": [
    {
      "uri": "textures/material_0_baseColor.jpeg"
    }
  ],
  "materials": [
    {
      "doubleSided": true,
      "extensions": {
        "KHR_materials_unlit": {}
      },
      "name": "material_0",
      "pbrMetallicRoughness": {
        "baseColorTexture": {
          "index": 0
        },
        "metallicFactor": 0.0
      }
    }
  ],
  "meshes": [
    {
      "name": "Object_0",
      "primitives": [
        {
          "attributes": {
            "NORMAL": 1,
            "POSITION": 0,
            "TEXCOORD_0": 2
          },
          "indices": 3,
          "material": 0,
          "mode": 4
        }
      ]
    }
  ],
  "nodes": [
    {
      "children": [
        1
      ],
      "matrix": [
        -0.8415690660476685,
        0.514041543006897,
        -0.16589991748332966,
        0.0,
        -0.2225360870361328,
        -0.6098191142082212,
        -0.7606565356254579,
        0.0,
        -0.4921779930591583,
        -0.6032263040542604,
        0.627597689628601,
        0.0,
        -3.2907497882843018,
        22.960763931274418,
        -8.805516242980952,
        1.0
      ],
      "name": "Sketchfab_model"
    },
    {
      "children": [
        2
      ],
      "name": "whole chicken nugget.obj.cleaner.materialmerger.gles"
    },
    {
      "mesh": 0,
      "name": "Object_2"
    }
  ],
  "samplers": [
    {
      "magFilter": 9729,
      "minFilter": 9987,
      "wrapS": 10497,
      "wrapT": 10497
    }
  ],
  "scene": 0,
  "scenes": [
    {
      "name": "Sketchfab_Scene",
      "nodes": [
        0
      ]
    }
  ],
  "textures": [
    {
      "sampler": 0,
      "source": 0
    }
  ]
}
